<svg width="47" height="48" viewBox="0 0 47 48" fill="none" xmlns="http://www.w3.org/2000/svg">
<path d="M46.2048 27.4838C46.1128 24.2946 45.2332 21.2469 43.7239 18.5716C43.5131 18.1872 43.2836 17.8137 43.0389 17.4496C42.1155 16.0451 41.0107 14.7618 39.7488 13.6388C39.6774 13.5689 39.6064 13.4985 39.5349 13.429C38.7753 12.6906 38.2749 11.861 38.2887 10.7654C38.3023 9.67411 38.272 8.58225 38.289 7.49106C38.3041 6.52084 37.831 5.72845 36.6499 5.80303C35.0817 5.90209 33.5025 5.82582 31.928 5.82812C31.0536 5.82933 30.6402 6.25078 30.6389 7.14081C30.637 8.3272 30.6056 9.51494 30.6326 10.7002C30.6331 10.7211 30.6332 10.742 30.6337 10.763C30.6381 10.941 30.6437 11.119 30.6512 11.2969C30.7064 12.6237 29.8009 13.6973 28.5409 13.9451C27.2268 14.2036 26.158 13.9108 25.3928 12.8837C25.0621 12.4399 24.9561 11.7542 24.9319 11.1708C24.9004 10.4072 24.8912 9.6426 24.8914 8.87766C24.8912 8.87766 24.891 8.87773 24.8908 8.87773C24.891 8.10995 24.9011 7.3419 24.9093 6.57439C24.9198 5.58355 24.7342 5.12532 23.569 5.18597C22.5222 5.24047 21.4689 5.16372 20.4211 5.20673C19.6605 5.23796 18.8502 4.77121 18.5296 4.07355C18.5785 3.96083 18.6061 3.83662 18.6061 3.70592V1.39623C18.6061 0.885995 18.1924 0.472321 17.6822 0.472321H15.3725C14.8622 0.472321 14.4486 0.885927 14.4486 1.39623V3.70592C14.4486 4.21615 14.8622 4.62982 15.3725 4.62982H17.6822C17.7222 4.62982 17.7613 4.62644 17.8 4.62151C18.6867 4.88108 19.0902 5.72338 19.1026 6.82099C19.1185 8.23105 19.1089 9.64132 19.1128 11.0515C19.1137 11.4257 19.1152 11.7998 19.1191 12.174C19.128 13.0519 19.3017 13.2029 20.1708 13.2391C20.3157 13.2451 20.4601 13.2656 20.6839 13.287C20.6839 14.0949 20.7095 14.8492 20.6627 15.5989C20.6531 15.7518 20.3806 15.9978 20.2136 16.0117C19.6089 16.062 18.997 16.0152 18.3891 16.0381C18.0259 16.0519 17.8942 15.897 17.9072 15.5593C17.9136 15.3916 17.9158 15.2229 17.906 15.0556C17.8763 14.553 17.6674 14.2346 17.1029 14.2514C16.5995 14.2664 16.0951 14.2648 15.5915 14.2531C14.9196 14.2376 14.6546 13.968 14.6455 13.306C14.6446 13.2486 14.6449 13.1912 14.6449 13.1337C14.6421 12.7293 14.6463 12.3248 14.6423 11.9204C14.6344 11.1327 14.2671 10.7548 13.4712 10.7436C12.6107 10.7314 11.748 10.7061 10.8897 10.7518C10.2511 10.7859 9.77887 10.5281 9.35796 10.1073C8.19435 8.94413 7.04177 7.76977 5.86999 6.61482C5.6073 6.35592 5.40675 6.08526 5.28951 5.77524C5.30594 5.69694 5.3148 5.61593 5.3148 5.53277V2.59316C5.3148 1.94378 4.78834 1.41732 4.13895 1.41732H1.19928C0.549896 1.41732 0.0234375 1.94378 0.0234375 2.59316V5.53277C0.0234375 6.18222 0.549896 6.70861 1.19928 6.70861H4.13895C4.2633 6.70861 4.38291 6.689 4.49542 6.65323C4.68272 6.71483 4.86258 6.81233 4.99024 6.93445C6.33458 8.21969 7.68095 9.50669 8.94665 10.8675C9.27013 11.2153 9.44322 11.8296 9.45019 12.3247C9.49434 15.4731 9.48974 18.6225 9.46026 21.7711C9.45316 22.5313 9.3109 23.2917 8.73528 23.8879C8.6818 23.9434 8.62689 23.9946 8.57084 24.0428C8.5588 24.0531 8.54643 24.0623 8.53426 24.0723C8.48727 24.1111 8.43966 24.1479 8.39071 24.1814C8.38077 24.1883 8.37063 24.1947 8.36062 24.2013C8.30497 24.2379 8.24824 24.2718 8.18982 24.3015C8.18658 24.3032 8.18347 24.3049 8.18022 24.3065C8.11511 24.3391 8.04837 24.3677 7.97947 24.3915C7.9794 24.3919 7.97934 24.3923 7.97927 24.3926C7.79076 24.4582 7.58791 24.4912 7.36538 24.484C7.09303 24.4751 6.81012 24.4464 6.54872 24.5033C5.32534 24.7696 4.75311 23.8313 4.133 23.1181C3.90906 22.8606 4.05829 22.269 4.05639 21.8298C4.05051 20.5121 4.05416 20.5121 2.74255 20.5071C1.03214 20.5006 1.03213 20.5006 1.03213 22.1979C1.03213 22.3659 1.03085 22.5339 1.0324 22.7018C1.03876 23.3977 1.18799 23.5541 1.86462 23.5679C2.09546 23.5726 2.33198 23.6012 2.55647 23.5632C3.87403 23.34 4.51564 24.2059 5.10302 25.1415C5.19248 25.284 5.18457 25.5006 5.18598 25.6831C5.19349 26.6488 5.19565 27.6145 5.18666 28.5801C5.18301 28.9712 5.30032 29.2147 5.73712 29.2618C6.97335 29.3951 7.48128 29.7352 7.77263 30.6616C8.90108 39.8318 16.7514 47.3738 26.9048 47.5002C30.2469 47.4785 33.4678 46.5957 36.2903 45.0256L29.7189 38.4542C28.8391 38.6868 27.9157 38.8121 26.9627 38.8121C21.0223 38.8121 16.2066 33.9965 16.2066 28.0561C16.2066 22.1157 21.0223 17.2999 26.9627 17.2999C32.9032 17.2999 37.7189 22.1156 37.7189 28.0561C37.7189 29.0309 37.5869 29.9745 37.3438 30.8725C37.1165 31.7121 36.791 32.511 36.3789 33.2558L42.5806 39.4575C43.0532 38.8053 43.4846 38.1189 43.8747 37.4035C45.4418 34.5296 46.311 31.1683 46.2048 27.4838ZM14.1337 27.986C14.1337 28.4808 13.7326 28.8819 13.2378 28.8819H10.9981C10.5032 28.8819 10.1021 28.4808 10.1021 27.986V25.7463C10.1021 25.2515 10.5032 24.8504 10.9981 24.8504H13.2378C13.7326 24.8504 14.1337 25.2515 14.1337 25.7463V27.986ZM15.6455 21.0289C15.6455 21.3999 15.3447 21.7008 14.9736 21.7008H13.2938C12.9227 21.7008 12.6219 21.3999 12.6219 21.0289V19.3491C12.6219 18.978 12.9227 18.6772 13.2938 18.6772H14.9736C15.3447 18.6772 15.6455 18.978 15.6455 19.3491V21.0289Z" fill="#FAD333"/>
</svg>
